<mxfile host="app.diagrams.net" modified="2023-07-16T17:03:12.152Z" agent="Mozilla/5.0 (Macintosh; Intel Mac OS X 10_15_7) AppleWebKit/605.1.15 (KHTML, like Gecko) Version/16.3 Safari/605.1.15" version="21.6.2" etag="ZT77sFqWSmy2GPokF2uS" type="github">
  <diagram name="第 1 页" id="xb9wNdSA-ELQ8yOaHLxE">
    <mxGraphModel>
      <root>
        <mxCell id="0" />
        <mxCell id="1" parent="0" />
      </root>
    </mxGraphModel>
  </diagram>
</mxfile>
